
<svg width="86px" height="33px" viewBox="0 0 86 33" version="1.1" xmlns="http://www.w3.org/2000/svg" xmlns:xlink="http://www.w3.org/1999/xlink">
    <!-- Generator: Sketch 42 (36781) - http://www.bohemiancoding.com/sketch -->
    <desc>Created with Sketch.</desc>
    <defs>
        <linearGradient x1="50%" y1="0%" x2="50%" y2="100%" id="linearGradient-1">
            <stop stop-color="#29618E" offset="0%"></stop>
            <stop stop-color="#1C5381" offset="100%"></stop>
        </linearGradient>
    </defs>
    <g id="Logo" stroke="none" stroke-width="1" fill="none" fill-rule="evenodd">
        <g></g>
        <path d="M18.8732041,26.8870232 L22.2838421,23.4425568 C22.3152108,23.4108769 22.3636898,23.4108769 22.3936327,23.4425568 L26.7866827,27.8791793 C26.8180514,27.9094192 26.8080705,27.9425391 26.7667207,27.954059 L21.3627417,29.4170933 C21.321392,29.4271732 21.2643579,29.4127733 21.234415,29.3810934 L18.8732041,26.9979028 C18.8432612,26.9676629 18.8432612,26.9172631 18.8732041,26.8870232 M12.6365274,29.4170933 L7.23254833,27.954059 C7.19119862,27.9425391 7.18264351,27.9094192 7.2125864,27.8791793 L11.6056364,23.4425568 C11.6370052,23.4108769 11.6854841,23.4108769 11.715427,23.4425568 L15.1274909,26.8870232 C15.1574338,26.9172631 15.1574338,26.9676629 15.1274909,26.9979028 L12.7662799,29.3810934 C12.7363371,29.4127733 12.6778771,29.4271732 12.6365274,29.4170933 M6.37703713,18.0497779 L9.78767511,21.4956844 C9.81761801,21.5259243 9.81761801,21.5748841 9.78767511,21.605124 L5.3946251,26.0417465 C5.3646822,26.0734264 5.33046176,26.0633465 5.31905494,26.0215866 L3.87181516,20.5654481 C3.86040834,20.5236882 3.87609272,20.4646485 3.90603561,20.4344086 L6.26724652,18.0497779 C6.29718941,18.0195381 6.34709423,18.0195381 6.37703713,18.0497779 M3.87181516,11.7512427 L5.31905494,6.29366415 C5.33046176,6.25334431 5.3646822,6.24326435 5.3946251,6.27350423 L9.78767511,10.7115668 C9.81761801,10.7418067 9.81761801,10.7907665 9.78767511,10.8210064 L6.37703713,14.2669128 C6.34709423,14.2971527 6.29718941,14.2971527 6.26724652,14.2669128 L3.90603561,11.8822822 C3.87609272,11.8520423 3.86040834,11.7930025 3.87181516,11.7512427 M15.1274909,5.42966755 L11.715427,8.87413401 C11.6854841,8.90437389 11.6370052,8.90437389 11.6056364,8.87413401 L7.2125864,4.43751145 C7.18264351,4.40727157 7.19119862,4.3727117 7.23254833,4.36263174 L12.6365274,2.89959749 C12.6778771,2.88807754 12.7363371,2.90391748 12.7662799,2.93559735 L15.1274909,5.31878798 C15.1574338,5.34902787 15.1574338,5.39942767 15.1274909,5.42966755 M21.3627417,2.89959749 L26.7667207,4.36263174 C26.8080705,4.3727117 26.8180514,4.40727157 26.7866827,4.43751145 L22.3936327,8.87413401 C22.3636898,8.90437389 22.3152108,8.90437389 22.2838421,8.87413401 L18.8732041,5.42966755 C18.8432612,5.39942767 18.8432612,5.34902787 18.8732041,5.31878798 L21.234415,2.93559735 C21.2643579,2.90391748 21.321392,2.88807754 21.3627417,2.89959749 M27.6236578,14.2669128 L24.211594,10.8210064 C24.1816511,10.7907665 24.1816511,10.7418067 24.211594,10.7115668 L28.6060698,6.27350423 C28.6360127,6.24326435 28.6688073,6.25334431 28.6802141,6.29366415 L30.1288798,11.7512427 C30.1388607,11.7930025 30.1231764,11.8520423 30.0932335,11.8822822 L27.7334484,14.2669128 C27.7020797,14.2971527 27.6536007,14.2971527 27.6236578,14.2669128 M18.8732041,16.1029056 L22.2838421,12.6584391 C22.3152108,12.6267593 22.3636898,12.6267593 22.3936327,12.6584391 L25.8056965,16.1029056 C25.8356394,16.1331455 25.8356394,16.1835453 25.8056965,16.2137852 L22.3936327,19.6582516 C22.3636898,19.6884915 22.3152108,19.6884915 22.2838421,19.6582516 L18.8732041,16.2137852 C18.8432612,16.1835453 18.8432612,16.1331455 18.8732041,16.1029056 M17.0552428,18.0497779 L20.4658808,21.4956844 C20.4958236,21.5259243 20.4958236,21.5748841 20.4658808,21.605124 L17.0552428,25.0510304 C17.023874,25.0812703 16.9753951,25.0812703 16.9454522,25.0510304 L13.5333883,21.605124 C13.5034454,21.5748841 13.5034454,21.5259243 13.5333883,21.4942444 L16.9454522,18.0497779 C16.9753951,18.0195381 17.023874,18.0195381 17.0552428,18.0497779 M13.5333883,10.7115668 L16.9454522,7.26566033 C16.9753951,7.23542045 17.023874,7.23542045 17.0552428,7.26566033 L20.4658808,10.7115668 C20.4958236,10.7418067 20.4958236,10.7907665 20.4658808,10.8210064 L17.0552428,14.2669128 C17.023874,14.2971527 16.9753951,14.2971527 16.9454522,14.2669128 L13.5333883,10.8210064 C13.5034454,10.7907665 13.5034454,10.7418067 13.5333883,10.7115668 M15.1274909,16.2137852 L11.715427,19.6582516 C11.6854841,19.6884915 11.6370052,19.6884915 11.6056364,19.6582516 L8.19499843,16.2137852 C8.16505554,16.1835453 8.16505554,16.1331455 8.19499843,16.1029056 L11.6056364,12.6584391 C11.6370052,12.6267593 11.6854841,12.6267593 11.715427,12.6584391 L15.1274909,16.1029056 C15.1574338,16.1331455 15.1574338,16.1835453 15.1274909,16.2137852 M30.1288798,20.5654481 L28.6802141,26.0215866 C28.6688073,26.0633465 28.6360127,26.0734264 28.6060698,26.0417465 L24.211594,21.605124 C24.1816511,21.5748841 24.1816511,21.5259243 24.211594,21.4956844 L27.6236578,18.0497779 C27.6536007,18.0195381 27.7020797,18.0195381 27.7334484,18.0497779 L30.0932335,20.4344086 C30.1231764,20.4646485 30.1388607,20.5236882 30.1288798,20.5654481 M29.5514097,16.1029056 L32.9620477,12.6584391 C32.9919906,12.6281993 33.007675,12.5691595 32.9962681,12.5273997 L30.3955141,2.72535818 C30.3841073,2.68359834 30.3427576,2.64039851 30.3014079,2.63031855 L20.5942074,0.00376887408 C20.5528577,-0.00775108065 20.4958236,0.0080888571 20.4658808,0.0383287382 L17.0552428,3.4827952 C17.023874,3.51303508 16.9753951,3.51303508 16.9454522,3.4827952 L13.5348142,0.0383287382 C13.5048713,0.0080888571 13.4464113,-0.00775108065 13.4050616,0.00376887408 L3.69928707,2.63031855 C3.65793736,2.64039851 3.6151618,2.68359834 3.60375498,2.72535818 L1.00300093,12.5273997 C0.993019968,12.5691595 1.00870434,12.6281993 1.03864723,12.6584391 L4.44928522,16.1029056 C4.47922811,16.1331455 4.47922811,16.1835453 4.44928522,16.2137852 L1.03864723,19.6582516 C1.00870434,19.6884915 0.993019968,19.7475313 1.00300093,19.7892911 L3.60375498,29.5913326 C3.6151618,29.6330924 3.65793736,29.6762923 3.69928707,29.6863722 L13.4050616,32.3129219 C13.4464113,32.3244418 13.5048713,32.3086019 13.5348142,32.278362 L16.9454522,28.8338956 C16.9753951,28.8036557 17.023874,28.8036557 17.0552428,28.8338956 L20.4658808,32.278362 C20.4958236,32.3086019 20.5528577,32.3244418 20.5942074,32.3129219 L30.3014079,29.6863722 C30.3427576,29.6762923 30.3841073,29.6330924 30.3955141,29.5913326 L32.9962681,19.7892911 C33.007675,19.7475313 32.9919906,19.6884915 32.9620477,19.6582516 L29.5514097,16.2137852 C29.5214668,16.1835453 29.5214668,16.1331455 29.5514097,16.1029056" fill="url(#linearGradient-1)"></path>
        <path d="M48.4346706,14.6691046 C48.4346706,13.7515426 47.7919565,13.2860904 46.5242778,13.2860904 L45.4339059,13.2860904 L45.4339059,16.035727 L46.6369395,16.035727 C47.8298841,16.035727 48.4346706,15.5759929 48.4346706,14.6691046 L48.4346706,14.6691046 L48.4346706,14.6691046 Z M50.8685764,14.628125 C50.8685764,15.7761259 50.49995,16.7072207 49.7727863,17.39625 C49.1291381,18.0103723 48.095751,18.3218174 46.701211,18.3218174 L45.4339059,18.3218174 L45.4339059,21.75 L43,21.75 L43,11 L46.4118028,11 C47.9363803,11 49.0252576,11.2683688 49.6481671,11.7980541 C50.4580989,12.4867021 50.8685764,13.4389539 50.8685764,14.628125 L50.8685764,14.628125 L50.8685764,14.628125 Z M52.8079288,11 L52.8079288,21.75 L58.5219184,21.75 L58.5219184,19.4639096 L55.3544964,19.4639096 L55.3544964,11 L52.8079288,11 L52.8079288,11 Z M66.2980113,18.1354078 L65.0632156,13.9732137 L63.8106705,18.1354078 L66.2980113,18.1354078 L66.2980113,18.1354078 Z M66.0766112,11 L70.2632208,21.75 L67.4937584,21.75 L66.9792135,20.1590381 L63.1158293,20.1590381 L62.5530808,21.75 L59.8142595,21.75 L64.0324442,11 L66.0766112,11 L66.0766112,11 Z M83.4534323,16.415789 C83.4534323,15.4286569 83.2183933,14.653094 82.7550413,14.1100665 C82.2883263,13.563227 81.6155317,13.2860904 80.7551543,13.2860904 L79.4719682,13.2860904 L79.4719682,19.4639096 L80.7390864,19.4639096 C82.5401805,19.4639096 83.4534323,18.4382757 83.4534323,16.415789 L83.4534323,16.415789 L83.4534323,16.415789 Z M84.6422665,20.2713032 C83.7432142,21.2525266 82.5327071,21.75 81.0445624,21.75 L76.9254005,21.75 L76.9254005,11 L80.4336104,11 C81.8346897,11 82.9540211,11.2599823 83.7611504,11.7732757 C84.2519672,12.0822429 84.6809415,12.4983289 85.0366762,13.0104787 C85.6758404,13.9194637 86,15.0377305 86,16.3340204 C86,17.9632934 85.5431872,19.2879832 84.6422665,20.2713032 L84.6422665,20.2713032 L84.6422665,20.2713032 Z M71.8606642,21.75 L74.4072318,21.75 L74.4072318,11 L71.8606642,11 L71.8606642,21.75 L71.8606642,21.75 Z" id="Logotype" fill="url(#linearGradient-1)"></path>
    </g>
</svg>